# Blender 5.0.1
# www.blender.org
mtllib arrow.mtl
o Cube
v -1.000000 -0.075000 0.075000
v -1.000000 0.075000 0.075000
v -1.000000 -0.075000 -0.075000
v -1.000000 0.075000 -0.075000
v 1.000000 -0.075000 0.075000
v 1.000000 0.075000 0.075000
v 1.000000 -0.075000 -0.075000
v 1.000000 0.075000 -0.075000
vn -1.0000 -0.0000 -0.0000
vn -0.0000 -0.0000 -1.0000
vn 1.0000 -0.0000 -0.0000
vn -0.0000 -0.0000 1.0000
vn -0.0000 -1.0000 -0.0000
vn -0.0000 1.0000 -0.0000
vt 0.375000 0.000000
vt 0.625000 0.000000
vt 0.625000 0.250000
vt 0.375000 0.250000
vt 0.625000 0.500000
vt 0.375000 0.500000
vt 0.625000 0.750000
vt 0.375000 0.750000
vt 0.625000 1.000000
vt 0.375000 1.000000
vt 0.125000 0.500000
vt 0.125000 0.750000
vt 0.875000 0.500000
vt 0.875000 0.750000
s 0
usemtl Material.002
f 1/1/1 2/2/1 4/3/1 3/4/1
f 3/4/2 4/3/2 8/5/2 7/6/2
f 7/6/3 8/5/3 6/7/3 5/8/3
f 5/8/4 6/7/4 2/9/4 1/10/4
f 3/11/5 7/6/5 5/8/5 1/12/5
f 8/5/6 4/13/6 2/14/6 6/7/6
o Cone
v -0.950000 0.141421 0.141421
v -0.950000 -0.141421 0.141421
v -0.950000 -0.141421 -0.141421
v -0.950000 0.141421 -0.141421
v -1.250000 -0.000000 -0.000000
vn -0.4264 -0.0000 0.9045
vn -0.4264 -0.9045 -0.0000
vn 1.0000 -0.0000 -0.0000
vn -0.4264 -0.0000 -0.9045
vn -0.4264 0.9045 -0.0000
vt 0.250000 0.490000
vt 0.250000 0.250000
vt 0.490000 0.250000
vt 0.250000 0.010000
vt 0.750000 0.490000
vt 0.990000 0.250000
vt 0.750000 0.010000
vt 0.510000 0.250000
vt 0.010000 0.250000
s 0
usemtl Material.001
f 9/15/7 13/16/7 10/17/7
f 10/17/8 13/16/8 11/18/8
f 9/19/9 10/20/9 11/21/9 12/22/9
f 11/18/10 13/16/10 12/23/10
f 12/23/11 13/16/11 9/15/11
